<?xml version="1.0" encoding="UTF-8"?>
<svg width="1200" height="800" viewBox="0 0 1200 800" xmlns="http://www.w3.org/2000/svg">
  <defs>
    <linearGradient id="g3" x1="0" y1="0" x2="1" y2="1">
      <stop offset="0%" stop-color="#1e3a8a" stop-opacity="0.9"/>
      <stop offset="100%" stop-color="#0ea5e9" stop-opacity="0.9"/>
    </linearGradient>
  </defs>
  <rect width="1200" height="800" fill="#ffffff"/>
  <rect x="80" y="80" width="1040" height="640" rx="24" fill="#f8fafc" stroke="#e2e8f0"/>
  <rect x="120" y="140" width="960" height="64" rx="12" fill="#e2e8f0"/>
  <rect x="120" y="240" width="280" height="420" rx="16" fill="#ffffff" stroke="#e2e8f0"/>
  <rect x="420" y="240" width="660" height="200" rx="16" fill="#ffffff" stroke="#e2e8f0"/>
  <rect x="420" y="460" width="660" height="200" rx="16" fill="#ffffff" stroke="#e2e8f0"/>
  <rect x="460" y="280" width="580" height="24" rx="8" fill="#e2e8f0"/>
  <rect x="460" y="320" width="360" height="16" rx="8" fill="#e2e8f0"/>
  <rect x="460" y="500" width="580" height="24" rx="8" fill="#e2e8f0"/>
  <rect x="460" y="540" width="420" height="16" rx="8" fill="#e2e8f0"/>
  <circle cx="160" cy="172" r="16" fill="url(#g3)"/>
  <circle cx="196" cy="172" r="16" fill="#94a3b8"/>
  <text x="100" y="740" font-family="system-ui, -apple-system, Segoe UI, Roboto" font-size="20" fill="#475569">Mockup • Прототип 3</text>
</svg>
